<svg width="512" height="512" viewBox="0 0 512 512" fill="none" xmlns="http://www.w3.org/2000/svg">
  <rect width="512" height="512" rx="100" fill="#0A5C8C"/>
  <g>
    <circle cx="256" cy="256" r="180" fill="#fff"/>
    <path d="M256 160c-53.02 0-96 42.98-96 96 0 53.02 42.98 96 96 96s96-42.98 96-96c0-53.02-42.98-96-96-96zm0 176c-44.11 0-80-35.89-80-80s35.89-80 80-80 80 35.89 80 80-35.89 80-80 80z" fill="#0A5C8C"/>
    <rect x="236" y="320" width="40" height="80" rx="20" fill="#0A5C8C"/>
    <circle cx="256" cy="400" r="20" fill="#fff" stroke="#0A5C8C" stroke-width="8"/>
    <path d="M256 400v32" stroke="#0A5C8C" stroke-width="8" stroke-linecap="round"/>
    <path d="M256 112v48" stroke="#0A5C8C" stroke-width="16" stroke-linecap="round"/>
    <path d="M176 256h-48" stroke="#0A5C8C" stroke-width="16" stroke-linecap="round"/>
    <path d="M336 256h48" stroke="#0A5C8C" stroke-width="16" stroke-linecap="round"/>
  </g>
</svg>
